<?xml version="1.0" encoding="UTF-8"?>
<svg width="376.03pt" height="376.03pt" version="1.1" viewBox="0 0 376.03 376.03" xmlns="http://www.w3.org/2000/svg">
 <g transform="translate(-161.98 -217.8)">
  <path d="m537.91 364.04c-1.7773-6.6484-16.105-7.832-23.652-9.5469-7.4336-1.6836-9.3203-9.2148-35.047-2.5273l-71.207 19.082-122.03-46.75-17.73 6.3086 49.609 64.594-45.742 12.254c-0.21484 0.0625-10.496 2.7969-23.605 6.3086l-67.742-35.609-18.785 4.9648 32.039 45.297c-5.1797 1.7578-7.4375 5.4102-6.0352 10.609 1.4805 5.5312 7.3164 8.2305 10.34 8.3438 20.207 0.71094 80.668 3.9688 111.74-3.2578l0.043 0.0469 180.83-48.449 2.4844-0.70312c25.375-7.5195 46.223-24.523 44.488-30.965z" fill="#008000"/>
 </g>
</svg>
