<?xml version="1.0" encoding="UTF-8" standalone="no"?>
<svg
   width="570.02802pt"
   height="460pt"
   version="1.1"
   viewBox="0 0 570.02802 460"
   id="svg8"
   sodipodi:docname="email.svg"
   inkscape:version="1.1.1 (3bf5ae0d25, 2021-09-20)"
   xmlns:inkscape="http://www.inkscape.org/namespaces/inkscape"
   xmlns:sodipodi="http://sodipodi.sourceforge.net/DTD/sodipodi-0.dtd"
   xmlns="http://www.w3.org/2000/svg"
   xmlns:svg="http://www.w3.org/2000/svg">
  <defs
     id="defs12" />
  <sodipodi:namedview
     id="namedview10"
     pagecolor="#ffffff"
     bordercolor="#666666"
     borderopacity="1.0"
     inkscape:pageshadow="2"
     inkscape:pageopacity="0.0"
     inkscape:pagecheckerboard="0"
     inkscape:document-units="pt"
     showgrid="false"
     inkscape:zoom="1.0116279"
     inkscape:cx="334.11494"
     inkscape:cy="267.39081"
     inkscape:window-width="1920"
     inkscape:window-height="1001"
     inkscape:window-x="-9"
     inkscape:window-y="-9"
     inkscape:window-maximized="1"
     inkscape:current-layer="svg8"
     width="501.02802pt" />
  <path
     d="M 486.641,36.008 H 83.441 C 70.476,36.0236 58.043,41.176 48.871,50.34 39.6952,59.5041 34.527,71.93 34.5,84.895 v 294.5 c 0.01563,12.973 5.1758,25.406 14.355,34.574 9.1758,9.168 21.617,14.316 34.586,14.316 h 403.2 c 12.961,-0.0156 25.387,-5.1719 34.551,-14.336 9.1641,-9.1641 14.32,-21.594 14.336,-34.555 V 84.664 C 535.4538,71.742 530.2741,59.371 521.114,50.258 511.9538,41.1408 499.563,36.016 486.641,36 Z M 468.778,69.61 288.458,206.14 c -2.0117,1.5508 -4.8164,1.5508 -6.8281,0 L 101.3099,69.61 Z m 17.863,325.08 h -403.2 c -4.0586,0 -7.9531,-1.6094 -10.828,-4.4727 -2.875,-2.8672 -4.5,-6.7539 -4.5156,-10.816 v -292.99 l 193.2,146.5 h 0.004 c 6.8203,5.1836 15.148,7.9883 23.715,7.9883 8.567,0 16.895,-2.8047 23.715,-7.9883 l 193.2,-146.5 v 292.99 c 0,4.0547 -1.6094,7.9453 -4.4766,10.812 -2.8672,2.8672 -6.7539,4.4766 -10.809,4.4766 z"
     fill="#008000"
     id="path2" />
</svg>
