<?xml version="1.0" encoding="UTF-8"?>
<svg width="490pt" height="490pt" version="1.1" viewBox="0 0 490 490" xmlns="http://www.w3.org/2000/svg">
 <path d="m192.5 17.5c0-9.6641 7.8359-17.5 17.5-17.5h70c9.6641 0 17.5 7.8359 17.5 17.5v42.25c14.562 4.1211 28.422 9.9102 41.359 17.145l29.887-29.887c3.2812-3.2812 7.7305-5.125 12.371-5.125 4.6406 0 9.0938 1.8438 12.375 5.125l49.496 49.5c6.8359 6.832 6.8359 17.914 0 24.75l-29.883 29.883c7.2344 12.938 13.023 26.797 17.145 41.359h42.25c9.6641 0 17.5 7.8359 17.5 17.5v70c0 9.6641-7.8359 17.5-17.5 17.5h-42.25c-4.1211 14.562-9.9102 28.422-17.145 41.359l29.883 29.883c6.8359 6.8359 6.8359 17.914 0 24.75l-49.496 49.496c-6.832 6.8359-17.914 6.8359-24.746 0l-29.887-29.887c-12.938 7.2383-26.797 13.027-41.359 17.148v42.25c0 9.6641-7.8359 17.5-17.5 17.5h-70c-9.6641 0-17.5-7.8359-17.5-17.5v-42.25c-14.562-4.1211-28.422-9.9102-41.359-17.145l-29.883 29.883c-3.2852 3.2812-7.7344 5.1289-12.375 5.1289s-9.0938-1.8477-12.375-5.1289l-49.496-49.496c-6.8359-6.8359-6.8359-17.914 0-24.746l29.883-29.887c-7.2344-12.938-13.023-26.797-17.145-41.359h-42.25c-9.6641 0-17.5-7.8359-17.5-17.5v-70c0-9.6641 7.8359-17.5 17.5-17.5h42.25c4.1211-14.562 9.9102-28.422 17.145-41.359l-29.883-29.887c-6.8359-6.832-6.8359-17.914 0-24.746l49.496-49.5c6.8359-6.832 17.914-6.832 24.75 0l29.883 29.887c12.938-7.2344 26.797-13.023 41.359-17.145zm52.5 350c67.656 0 122.5-54.844 122.5-122.5s-54.844-122.5-122.5-122.5-122.5 54.844-122.5 122.5 54.844 122.5 122.5 122.5z" fill="#87de87" fill-rule="evenodd"/>
</svg>
